<svg xmlns="http://www.w3.org/2000/svg" width="218" height="101" viewBox="0 0 218 101">
  <g fill="none" fill-rule="evenodd">
    <g fill-rule="nonzero">
      <polygon fill="#282B2E" points="14.833 11.133 19.646 25.966 19.646 0 35.068 0 35.068 61.786 19.646 61.786 19.646 39.717 14.833 61.786 0 61.786 8.12 31.335 1.866 11.135"/>
      <path fill="#FF6000" d="M74.589 41.355C74.6503784 44.1547064 74.5190683 46.9553188 74.196 49.737 73.8118432 52.5030655 72.6922167 55.1152971 70.954 57.301 68.04 60.901 63.39 62.736 57.071 62.736 50.228 62.736 45.513 61.23 42.926 58.185 40.47 55.402 39.259 50.327 39.259 43.025L39.259 30.025C39.1408524 26.7135914 39.5159575 23.4030275 40.372 20.202 41.3232576 17.0145889 43.438665 14.3016128 46.298 12.602 49.3985504 10.8906702 52.9096195 10.0639259 56.448 10.212 63.1933333 10.212 68.083 12.0673333 71.117 15.778 72.6070275 17.5664902 73.6406224 19.6899582 74.129 21.966 74.4860634 24.2744123 74.6399864 26.6096923 74.589 28.945L74.589 41.355zM59.167 25.116C59.167 22.988 59.134 21.776 59.102 21.482 58.84 19.943 58.12 19.19 56.974 19.19 55.763 19.19 55.042 19.943 54.747 21.449 54.682 21.809 54.682 23.021 54.682 25.116L54.682 47.969C54.682 49.8683333 54.7153333 51.047 54.782 51.505 55.077 52.978 55.764 53.732 56.91 53.732 58.056 53.732 58.744 53.077 59.01 51.8 59.1549632 50.7040021 59.2098137 49.597963 59.174 48.493L59.167 25.116zM114.535 28.945L114.535 41.355C114.596378 44.1547064 114.465068 46.9553188 114.142 49.737 113.757843 52.5030655 112.638217 55.1152971 110.9 57.301 107.986 60.901 103.336 62.736 97.017 62.736 90.174 62.736 85.459 61.23 82.872 58.185 80.416 55.402 79.205 50.327 79.205 43.025L79.205 30.025C79.0868524 26.7135914 79.4619575 23.4030275 80.318 20.202 81.2692576 17.0145889 83.384665 14.3016128 86.244 12.602 89.3445504 10.8906702 92.8556195 10.0639259 96.394 10.212 103.139333 10.212 108.029 12.0673333 111.063 15.778 112.553061 17.5664684 113.58666 19.6899451 114.075 21.966 114.432084 24.27441 114.586007 26.6096919 114.535 28.945L114.535 28.945zM99.113 25.116C99.113 22.988 99.08 21.776 99.048 21.482 98.786 19.943 98.066 19.19 96.92 19.19 95.709 19.19 94.988 19.943 94.693 21.449 94.627 21.809 94.627 23.021 94.627 25.116L94.627 47.969C94.627 49.8683333 94.6603333 51.047 94.727 51.505 95.022 52.978 95.709 53.732 96.855 53.732 98.001 53.732 98.689 53.077 98.955 51.8 99.0999632 50.7040021 99.1548137 49.597963 99.119 48.493L99.113 25.116z"/>
      <path fill="#282B2E" d="M135.032 0L135.032 14.6C137.321689 11.786396 140.769694 10.1708221 144.397 10.212 148.719 10.212 151.731 11.456 153.434 13.977 154.44829 15.542978 155.024912 17.3519141 155.104 19.216 155.137 19.609 155.137 21.475 155.137 24.816L155.137 47.641C155.208589 50.0403907 155.055253 52.4412122 154.679 54.812 154.207455 57.1624397 152.860147 59.2457805 150.91 60.64 149.017252 62.0086615 146.729183 62.7214886 144.394 62.67 140.700044 62.6453368 137.232153 60.8871363 135.029 57.922L134.047 61.753 119.61 61.753 119.61 0 135.032 0zM139.747 25.54C139.782715 24.2377708 139.727916 22.9346335 139.583 21.64 139.288 20.003 138.535 19.184 137.291 19.184 136.08 19.184 135.359 19.97 135.13 21.574 135.064 21.836 135.064 23.146 135.064 25.503L135.064 47.343C135.064 49.537 135.097 50.814 135.164 51.243 135.459 52.913 136.179 53.731 137.423 53.731 138.667 53.731 139.423 52.814 139.715 50.981 139.748 50.719 139.748 49.344 139.748 46.855L139.747 25.54zM176.125 0L176.125 8.055 160.245 8.055 160.245 0 176.125 0zM176.125 11.133L176.125 61.786 160.245 61.786 160.245 11.133 176.125 11.133zM217.414 11.133L217.414 61.786 201.992 61.786 201.992 22.593C201.73 20.334 200.911 19.188 199.504 19.188 198.194 19.188 197.441 20.203 197.245 22.2L197.245 61.786 181.822 61.786 181.822 26.293C181.708322 23.1094185 181.949812 19.9230842 182.542 16.793 183.053924 14.7124024 184.37351 12.9214082 186.209 11.816 188.032113 10.7112619 190.135142 10.1557316 192.266 10.216 196.28629 10.1011751 200.031039 12.2517401 201.958 15.782L201.729 11.132 217.414 11.133z"/>
    </g>
    <g fill="#000" transform="translate(56 29)">
      <ellipse cx="1" cy="1.5" rx="1" ry="1.5"/>
      <ellipse cx="41" cy="1.5" rx="1" ry="1.5"/>
    </g>
    <text fill="#282B2E" font-family="Montserrat-SemiBold, Montserrat" font-size="24" font-weight="500">
      <tspan x="39" y="91">Nerd friday</tspan>
    </text>
    <g transform="translate(39 19)">
      <polygon fill="#31D3FF" fill-opacity=".441" points="3.574 10.893 7.076 21.151 13.142 23.968 20.981 23.968 30.001 20.7 33.752 14.718 34.637 10.241 35.604 6.71 39.375 6.412 40.688 10.241 44.609 18.48 49.865 23.004 55.318 24.561 60.13 23.968 62.787 23.634 67.734 21.862 70 18.48 71.783 13.661 71.783 5.999 68.721 1.315 55.627 1.315 46.891 2.506 39.375 4.19 31.653 2.506 22.032 1.315 9.03 1.68 2.664 4.19"/>
      <path fill="#000" d="M58.5190106,-2.84217094e-14 C62.5614991,-2.84217094e-14 67.1951123,0.264256599 72.41985,0.792769797 C74.119505,1.18185694 75.1730167,1.37640052 75.5803852,1.37640052 C75.9877537,1.37640052 76.0985125,3.11314989 75.9126617,6.58664864 C74.2133468,7.87854691 73.0490762,10.4667381 72.41985,14.3512221 C71.4760107,20.1779482 67.7223576,22.9799665 66.9537162,23.2744091 C66.1850747,23.5688516 61.3929442,26.1741819 52.0808655,24.3664785 C45.8728131,23.161343 41.556741,18.1561005 39.1326493,9.35075093 C38.8788265,8.50246006 38.5017473,7.92205053 38.0014116,7.60952232 C37.4987516,7.92128291 37.1213414,8.50189903 36.8673507,9.35075093 C34.443259,18.1561005 30.1271869,23.161343 23.9191345,24.3664785 C14.6070558,26.1741819 9.81492529,23.5688516 9.04628383,23.2744091 C8.27764236,22.9799665 4.52398929,20.1779482 3.58014997,14.3512221 C2.95092376,10.4667381 1.78665322,7.87854691 0.0873383446,6.58664864 C-0.0985124734,3.11314989 0.0122463482,1.37640052 0.419614809,1.37640052 C0.826983271,1.37640052 1.88049499,1.18185694 3.58014997,0.792769797 C8.80488773,0.264256599 13.4385009,-2.84217094e-14 17.4809894,-2.84217094e-14 C23.5447221,-2.84217094e-14 35.1226208,2.12766539 35.9139591,2.33890521 C36.3167235,2.44641912 37.0115688,2.52946395 37.9984951,2.5880397 C38.9888997,2.52940795 39.6834123,2.44638287 40.0860409,2.33890521 C40.8773792,2.12766539 52.4552779,-2.84217094e-14 58.5190106,-2.84217094e-14 Z M9.52527855,3.17357493 C6.63653847,3.81768248 5.26262449,6.5918058 5.40353661,11.4959449 C5.54444873,16.400084 7.05559144,19.8937794 9.93696474,21.9770312 C11.8528084,22.7994414 14.5399649,23.2652808 16.7810458,23.2671094 C24.4217327,23.4178398 29.3284419,21.2342406 31.5011734,16.7163119 C33.6739048,12.1983831 33.9644698,8.57427636 32.3728686,5.84399155 C30.7415751,3.80096572 27.1918477,2.6165564 21.7236864,2.2907636 C16.255525,1.96497079 12.1893891,2.25924124 9.52527855,3.17357493 Z M66.4747214,3.17357493 C63.8106109,2.25924124 59.744475,1.96497079 54.2763136,2.2907636 C48.8081523,2.6165564 45.2584249,3.80096572 43.6271314,5.84399155 C42.0355302,8.57427636 42.3260952,12.1983831 44.4988266,16.7163119 C46.6715581,21.2342406 51.5782673,23.4178398 59.2189542,23.2671094 C61.4600351,23.2652808 64.1471916,22.7994414 66.0630353,21.9770312 C68.9444086,19.8937794 70.4555513,16.400084 70.5964634,11.4959449 C70.7373755,6.5918058 69.3634615,3.81768248 66.4747214,3.17357493 Z"/>
    </g>
    <g transform="translate(55 48)">
      <polygon fill="#FFF" points=".747 6.732 .828 5.497 1.33 4.189 1.593 2.852 2.695 1.309 3.488 .646 5.257 .424 6.99 .646 9.5 1.309 11.591 2.146 16 4.398 17.775 5.4 18.842 4.913 20.579 4.489 23.221 4.624 24.866 4.913 27.028 5.4 32.163 2.296 34.921 1.167 38.335 .546 40.873 .546 41.478 .754 42.112 .996 43.34 3.124 43.94 6 44.524 9.739 44.653 13.271 44.412 17.082 43.766 19.154 42.797 21.187 40.806 22.123 38.686 22.123 35.571 21.431 32.035 20.029 29.125 18.577 28.224 18.023 27.247 17.422 26.032 17.17 24.63 17.555 20.191 17.632 18.211 17.422 17.105 17.555 16.273 18.224 15 19.266 11.72 20.858 9.095 22.027 5.588 22.756 3.213 22.756 1.921 21.57 1.33 20.128 .321 16.345 .321 9.867 .481 7.5"/>
      <g fill="#000" fill-rule="nonzero">
        <path d="M44.8945806,10.773572 C44.9310236,11.816 45.0333155,12.8613644 44.9891124,13.9002343 C44.909434,15.6384495 44.6051233,17.3583974 44.0840383,19.0156647 C43.9314627,19.6690595 43.7000648,20.3007247 43.395118,20.8962647 C42.679549,22.1007776 41.5907196,22.3965352 40.3753783,22.4275872 C38.172469,22.4204949 35.9944095,21.9533719 33.9758994,21.0551071 C31.7668335,20.1875546 29.6335401,19.1319433 27.5986818,17.8994874 C26.9599774,17.5027065 26.1574301,16.9993596 25.1824955,17.594452 C24.2560996,18.1599079 23.134064,17.6128212 22.0994245,17.7151979 C21.5936207,17.7652504 21.0929417,17.8037248 20.5887913,17.8936864 C20.0683747,18.0367135 19.5162082,18.0016292 19.0172978,17.7938348 C18.3070085,17.4294039 17.4477669,17.5645881 16.8786656,18.1303049 C15.874926,19.0225472 14.7584592,19.7740796 13.5589695,20.3649072 C11.5095139,21.2966132 9.45217136,22.2281758 7.23242813,22.6480604 C5.90361107,22.9631786 4.53498083,23.0675992 3.17487349,22.9576343 C2.84933619,22.9634155 2.55635867,22.7574062 2.44640522,22.4454064 C2.18127109,21.8877697 1.60630179,21.4746331 1.41435411,20.8586368 C0.86631065,19.0994236 0.0326897093,17.4359491 0.14838819,15.4697491 C0.194827296,14.6800084 0.0304819023,13.8090197 0.00366409371,12.9765579 C-0.0212793647,11.2394104 0.0811577013,9.50278989 0.310121795,7.78116589 C0.500238474,6.18016923 0.825516529,4.59882977 1.28234604,3.05469715 C1.60226419,1.86934611 2.34334083,0.847276533 3.36174321,0.186858038 C3.97535383,-0.2055087 4.65047772,0.132721337 5.28640599,0.191109586 C8.84693161,0.517976655 12.011029,2.02763499 15.153894,3.62671931 C15.9322633,4.02274458 16.6324059,4.54378641 17.4212647,4.90840091 C17.6423671,5.06871463 17.9318819,5.09308747 18.1758462,4.97192545 C19.6072896,4.08983678 21.1345424,4.11799074 22.7194237,4.41125192 C23.5824424,4.54840876 24.454457,4.61854714 25.3279242,4.62106033 C25.7391721,4.60366648 26.1470258,4.70348016 26.5055778,4.90926653 C26.8522738,5.14861743 27.3138369,5.12017663 27.6296475,4.84000311 C28.4643864,4.34131897 29.1247227,3.60200389 30.0020113,3.14811166 C31.8253263,2.20472226 33.6002951,1.21219854 35.6523389,0.774781651 C36.995712,0.464337194 38.3651817,0.285476699 39.7420242,0.240645624 C41.72044,0.208125344 42.4212309,0.659286835 43.3107469,2.61695984 C43.8019705,3.87040311 44.1156936,5.18857056 44.2425025,6.53190892 C44.4521925,7.94172999 44.6148938,9.35878205 44.7980854,10.7726968 L44.8945806,10.773572 Z M17.7173598,7.69944913 C17.5592856,9.68905896 17.2938602,11.6724708 17.4498253,13.678293 C17.5532405,14.7574497 17.8914611,15.7996058 18.4399187,16.7290587 C18.8630613,16.3056303 19.1418463,15.9065873 18.8304187,15.2440631 C19.1786509,15.3757846 19.4623729,15.155278 19.6850749,15.3808061 C19.9428528,15.641877 20.1708206,15.8579312 20.5279921,15.532848 C20.8480865,15.2415285 20.7065332,14.96557 20.3486665,14.5882534 C20.8766283,14.7798027 21.2591426,14.7545229 21.5523769,14.9966986 C21.9326834,15.3108445 22.1950742,15.1613899 22.4669257,14.8242215 C22.7324122,14.4949585 22.8629875,14.0360352 23.3885677,13.8196797 C23.3276676,13.9670088 23.2796535,14.1195208 23.2450838,14.2754418 C23.2173171,14.5148293 22.7116165,14.6985641 23.1525438,14.9902663 C23.5343253,15.2428627 23.6567082,14.9356418 23.8909002,14.6949678 C24.2714556,14.3038923 24.4306385,13.680622 25.0794848,13.3865335 C25.0700528,13.5007427 25.0474174,13.6134201 25.0120481,13.7222288 C24.8598503,13.9714537 24.6933206,14.2116064 24.5388305,14.4594396 C24.0318381,15.2726714 24.0310583,15.2804189 24.9403366,15.5369513 C25.0503002,15.5776757 25.146895,15.6488795 25.2192202,15.7425273 C25.6292804,16.1355253 25.8278327,16.1766443 26.0475612,15.4972622 C26.5773456,13.8593783 26.6015188,12.1535797 26.8659107,10.481559 C26.9860842,9.24133845 26.9523097,7.99064496 26.765385,6.75902003 C26.6565119,5.52726183 26.3173928,5.08629163 25.0894951,5.08823328 C24.3156487,5.07155022 23.543337,5.01055804 22.7762207,4.90554582 C21.7106344,4.78494819 20.6549974,4.56040045 19.5655949,4.84228432 C18.7899634,4.9689033 18.174071,5.57431513 18.0225774,6.3590445 C17.9753481,6.81950221 17.8710495,7.2720201 17.7121691,7.70580493 L17.7173598,7.69944913 Z M35.8659513,1.94275706 C35.9667176,1.77543852 36.0880118,1.62187179 36.2269042,1.48576583 C36.3579237,1.33251169 36.5782125,1.29737255 36.7489942,1.40248522 C36.9366015,1.61064848 36.672233,1.74456508 36.5553461,1.88096374 C36.1099321,2.31652456 35.5639335,2.63085099 34.9677356,2.79493664 C33.7799135,3.32432789 32.6227016,3.92222997 31.5017323,4.58573279 C30.3808615,5.18798445 29.4192864,6.12558237 28.0464815,6.31026408 C28.0179068,5.81311509 28.3837968,5.47162824 28.4185956,4.94772176 C27.7142253,5.67284747 27.2214944,6.35879582 27.3265391,7.38838309 C27.4798657,8.37117152 27.5026176,9.37049424 27.3941825,10.3594597 C27.0606628,12.3345502 27.1014743,14.3829931 26.3475881,16.2825361 C26.2904247,16.426577 26.169047,16.6783175 26.4627651,16.76628 C26.6756729,16.830058 26.8998123,17.0105695 27.0987639,16.7198382 C27.2469662,16.4945452 27.4108223,16.2803442 27.5890755,16.0788778 C27.9111429,15.7284957 28.0908443,15.2206485 28.7784164,14.9827053 C28.3901008,15.7046172 28.0832532,16.2778493 27.7734697,16.8494459 C27.6660904,17.0475804 27.4208077,17.2118318 27.7974267,17.4291916 C28.1401347,17.6269962 28.2349953,17.4555856 28.4215691,17.2097227 C28.9419957,16.4405852 29.5912871,15.7706685 30.3397494,15.2306103 C30.4698221,15.6411262 30.1782036,15.7781944 30.0284063,15.9836317 C29.6393155,16.5172448 29.2483302,17.0494328 28.8554501,17.5801957 C28.7474121,17.6719301 28.7028036,17.8199791 28.7417314,17.9576114 C28.7806591,18.0952437 28.895772,18.1964689 29.0351844,18.2156611 C29.2758401,18.2991808 29.5093744,18.6933553 29.8054976,18.1982914 C30.1432961,17.6548236 30.5302812,17.1447119 30.9613973,16.6746207 C31.4037035,16.083981 31.9433703,15.576001 32.5563594,15.1733076 C31.783378,16.1944874 31.195904,17.3289956 30.4208651,18.3297212 C30.2002817,18.6145175 30.1000285,18.8557845 30.4973774,19.0293328 C31.2696871,19.3667164 32.0512977,19.6819526 32.8842939,20.0293744 C32.880858,19.6227952 33.0270857,19.2296426 33.2941756,18.927353 C33.5371659,18.6199981 33.2576763,18.5174493 33.1095653,18.4284011 C32.9148837,18.3113185 32.7008345,17.9918881 32.4356017,18.3319689 C32.3007282,18.5049194 32.1910989,18.6980851 32.0607208,18.874938 C31.960477,19.0109302 31.9831281,19.3460325 31.7142407,19.2241388 C31.3807867,19.0729674 31.5534795,18.7733791 31.6967427,18.6045606 C32.0414048,18.1984349 32.2078265,17.8278185 31.6329371,17.3567718 C32.1513536,17.8403196 32.4514979,17.6002626 32.7258767,17.2120326 C32.895347,16.972229 33.0606178,16.7275092 33.2503812,16.5049748 C33.4139468,16.3132008 33.536372,16.01026 33.8854451,16.1482512 C33.8071948,16.6744294 33.3019828,16.9184845 33.1232772,17.3784599 C33.0404281,17.5916878 32.6009195,17.7645617 33.022202,18.0122706 C33.3027015,18.1772345 33.6356341,18.4809835 33.9684586,18.029009 C34.2128032,17.787669 34.4342625,17.5234211 34.6298988,17.2397705 C34.863621,16.7375091 35.0391605,16.8597232 35.4361617,17.0863083 C36.5745822,17.7360443 36.1286991,17.8218405 36.9625314,16.7971599 C37.2716244,16.4173279 37.4098331,15.8215516 38.1228796,15.6382424 C37.7038379,16.3330669 37.3687726,16.9214065 36.9990119,17.4861977 C36.8444326,17.7222902 36.6078872,17.8859628 37.0139968,18.112127 C37.3253493,18.2855175 37.5694717,18.4711079 37.842258,18.0392338 C38.0026959,17.6890917 38.2879255,17.4141726 38.6401077,17.2702248 C38.5786978,17.8138156 38.11775,18.0233897 37.950262,18.424183 C37.7964906,18.7921213 38.105748,18.8378888 38.2428105,18.880103 C38.5883887,18.9865447 38.9340467,19.6176055 39.3234569,18.9598829 C39.5948105,18.5015526 40.4400012,18.1615722 39.5478922,17.4395215 C40.2051422,17.5140121 40.582029,17.9225433 41.0246379,18.1872202 C41.5831661,18.5212369 41.9005219,18.4900796 42.2477113,17.8465702 C42.5692661,17.1831328 43.0080038,16.5856081 43.5420029,16.0838515 C43.6175422,16.1811835 43.6090417,16.3207937 43.5222736,16.4078826 C43.1858508,16.9989052 42.8436783,17.5867428 42.5183462,18.1840638 C42.2464759,18.6831401 42.535755,18.9233454 42.9346305,19.1630198 C43.4234249,19.4567928 43.5033804,19.1070993 43.6036007,18.7816717 C44.0921727,17.2930962 44.3638538,15.7396669 44.4099858,14.1708891 C44.4419841,10.795842 44.0810419,7.42882363 43.3347086,4.14025756 C43.0972699,3.11098154 42.6453274,2.14567762 42.0094936,1.30973069 C41.8587051,1.10725369 41.615029,0.823409034 41.4441729,0.892705924 C40.9354378,1.09911883 40.5023319,0.787411954 40.0319421,0.773299109 C39.3763926,0.753609993 38.7891958,0.625350967 38.491109,1.44662672 C38.4215865,1.63814725 38.1441169,2.06584153 37.9262956,1.88169067 C37.6040215,1.60921377 38.0601497,1.40524944 38.1955916,1.17580931 C38.2977776,1.10567517 38.3347034,0.970306068 38.2826732,0.856570155 C36.8722311,0.808068843 35.4754245,1.151359 34.2420529,1.84962472 C34.6256609,1.88151832 35.0112034,1.8196719 35.3665923,1.66923281 C35.7497267,1.47343682 35.7462647,1.77528718 35.8661157,1.94726686 C34.8685111,2.0209492 33.9156028,2.19981552 33.2770721,3.11799692 C34.0723665,2.56775379 35.0731983,2.49902122 35.8659513,1.94275706 Z M12.3033615,2.79398972 C11.4051551,2.52662042 10.6081744,2.0072859 9.70403986,1.74028006 C9.10378881,1.56300628 8.89570065,2.10314899 8.49247524,2.27406219 C8.45885328,2.33182834 8.45273901,2.40198945 8.47584623,2.46487971 C8.54838913,2.62204831 9.94407545,3.12549571 10.0434784,3.00401812 C10.3560898,2.6219957 10.7023585,2.90449172 10.95845,2.98847534 C11.410487,3.16035987 11.9173574,3.0863904 12.3037655,2.7921485 C12.2649128,3.03883395 12.0035977,3.39451016 12.2809029,3.51154013 C12.8499675,3.7516737 13.175201,4.47036709 13.8837614,4.37338971 C14.0642285,4.34869343 14.2079097,4.26640277 14.3110754,4.46210312 C14.3730558,4.63347969 14.2939286,4.82443262 14.1301057,4.89882656 C13.811505,5.20059563 13.4783845,5.48646801 13.1263474,5.80062348 C13.0055897,5.40798893 13.2646125,5.27816606 13.3957515,5.08330263 C13.4648652,4.9805768 13.7011241,4.86866878 13.5159313,4.74482391 C12.9853499,4.36330228 12.4220557,4.03126949 11.8328919,3.7527593 C11.5139624,3.61560502 11.3980808,4.11070715 11.1529249,4.26986522 C11.0068621,4.36465706 10.8541006,4.44875546 10.5577565,4.62475234 C10.7878335,4.16985102 10.9295324,3.88974141 11.0802646,3.59175522 C10.390945,3.13636131 9.54046485,3.43385014 8.84498216,3.02521369 C8.49998648,2.82249279 8.07236715,2.57168492 7.64720929,2.96009183 C7.52900707,3.06807351 7.40315737,3.004922 7.41552579,2.83943681 C7.45350946,2.33144135 7.04055091,2.40946133 6.77550603,2.33652504 C6.18409561,2.17380408 5.52334595,2.38857661 4.96736379,1.98697029 C4.85011514,1.90228366 4.68244865,1.87711392 4.71649115,1.68942408 C4.75472379,1.4785205 4.92152126,1.51145207 5.06137409,1.55360409 C5.29319148,1.66856859 5.56542584,1.66167399 5.7913418,1.53511696 C6.01725776,1.40855993 6.16867526,1.17812679 6.19735185,0.917234823 C5.06323898,0.489688795 5.07987269,0.506078059 4.21461904,1.416995 C4.04954014,1.67724263 3.80481327,1.8748448 3.5183096,1.97922281 C3.32267442,1.7649333 3.53991793,1.6344122 3.56572109,1.47997435 C3.5923369,1.32069193 3.77183631,1.1588892 3.61383249,1.009272 C3.45134259,0.855446292 3.30958259,1.06226571 3.15730028,1.10759324 C2.9490978,1.18545918 2.77278691,1.33255886 2.65688909,1.52509624 C2.15914427,2.19254363 1.79544592,2.95329338 1.58657245,3.76388315 C1.17255267,5.39421637 0.866335597,7.05096901 0.66998024,8.72300102 C0.391891886,11.5747074 0.42116376,14.4488327 0.75727317,17.2940555 C0.767854433,17.7448697 0.914349925,18.1814667 1.17689742,18.5446515 C1.56158665,18.285924 1.77885834,17.7670725 2.34153909,17.7445092 C1.51572533,19.8229376 1.51572533,19.8229376 1.73253198,20.2619614 C2.47501162,19.3125991 3.28525743,18.4202819 4.15667585,17.5922712 C4.27943791,17.7432194 4.26885452,17.9645716 4.13227254,18.1026674 C3.5832755,18.8190701 3.06138751,19.5587008 2.48375474,20.2501824 C2.00032017,20.828919 1.97555046,21.2943846 2.64701032,21.7100273 C2.94613119,22.1312967 3.38802353,22.4247228 3.88728113,22.5335938 C4.08398931,22.5710917 4.2767648,22.451356 4.33400973,22.2561241 C4.47320022,21.9928246 4.20389004,21.9897782 4.10319525,21.8933556 C3.65865097,21.4676412 3.1359879,21.674365 2.63364605,21.7257948 C3.29504865,20.1694651 4.60215024,19.1548515 5.70429218,17.9617685 C5.1814883,18.8284386 4.61578977,19.6675191 4.00938225,20.4757679 C3.44698804,21.2512187 3.46271045,21.2029835 4.36730534,21.524743 C4.87439632,21.705111 5.02797514,21.3738393 5.22265674,21.1026345 C5.40752064,20.84505 5.82920238,20.5814062 5.3228348,20.182918 C6.53074949,20.2918561 6.64564001,18.8958418 7.65428837,18.5678318 C7.26096051,19.1012313 6.92960156,19.5225507 6.63493919,19.9689824 C6.55662311,20.0876288 6.30997349,20.2431905 6.58034999,20.4474226 C6.79493343,20.6157597 7.06904784,20.6847116 7.33594542,20.6374883 C7.602843,20.590265 7.83803359,20.4311996 7.98424747,20.1990251 C8.15891319,19.9509862 8.35244861,19.7167015 8.52267053,19.4954393 C8.35286668,19.247233 8.02339612,19.2257888 7.94222398,18.8265928 C8.63204622,19.0519822 9.29981858,19.0779028 9.85263936,19.5034546 C10.3932139,19.9195563 10.6985489,19.5523402 10.99913,19.1334599 C11.2125451,18.8360906 11.2722968,18.7185968 10.8414128,18.5118539 C10.4303849,18.3146327 9.85136635,18.327593 9.57525425,17.7919696 C10.5122569,17.6527302 11.4281915,18.8877309 12.4151939,17.5926442 C11.7256066,18.3982959 12.3855999,18.4291519 12.7498411,18.6155218 C12.8425796,18.6437664 12.9317774,18.6828941 13.0156376,18.7321166 C13.5606888,19.2170083 13.5088711,18.5084775 13.680878,18.3484251 C13.8610867,18.1807065 14.1154731,17.9036625 13.6396578,17.6258054 C13.1697096,17.3513533 12.6523077,17.2431612 12.1769481,17.0118894 C12.1164914,17.001752 12.0630155,16.9661818 12.029613,16.9138874 C11.9962105,16.8615929 11.9859651,16.7974022 12.0013852,16.7370309 C12.0680139,16.5572129 12.1850559,16.6692739 12.2933136,16.7054671 C12.6836022,16.8359212 13.0788842,16.9510191 13.4682239,17.0842758 C14.5078614,17.4400859 14.5275015,17.432434 14.9482626,16.3306948 C14.5111717,16.2125891 14.1067918,15.9932727 13.7666678,15.689854 C14.5833825,15.8347127 15.3756141,16.0740476 16.1835118,16.2285955 C16.5634749,16.2925263 16.9014283,16.511367 17.1193824,16.8346157 C17.1926346,16.9363993 17.1620447,17.2038739 17.3659193,17.0790438 C17.5607705,17.0335332 17.7012866,16.8604315 17.7084863,16.6570358 C17.68454,16.4374454 17.63304,16.2218866 17.5552457,16.0156307 C17.2057365,15.1765174 17.015601,14.2775685 16.9949043,13.3663709 C16.8755705,11.1304533 17.0421883,8.88822765 17.4905711,6.6960359 C17.6858587,5.76963357 17.4638613,5.34505262 16.6265294,5.00146152 C15.1251596,4.38544134 13.7734697,3.47034459 12.3033615,2.79398972 Z M40.0937795,21.8520692 C40.4091577,21.8406392 40.7252781,21.8394054 41.0397919,21.815876 C41.8757602,21.7323139 42.604083,21.2001756 42.9494369,20.4206221 C43.151315,20.0590492 42.9146006,19.903674 42.6786799,19.7876722 C42.4065372,19.6538896 42.2064112,19.2122785 41.8340106,19.4578497 C41.3761339,19.8538745 41.261707,20.526476 41.5620886,21.0562071 C41.6314325,21.1758099 41.7775142,21.3184879 41.5949004,21.4338679 C41.2848679,21.6297978 40.9453495,21.3266562 40.5817706,21.4934326 C40.3744435,21.5885306 40.4706381,21.1981916 40.4149638,21.0316256 C40.2397203,20.5074369 39.7380924,20.3494888 39.3319217,20.1263662 C39.0547715,19.9741521 39.0531649,20.3746968 38.9466735,20.5346822 C38.7618096,20.8124006 38.7097335,21.4305203 38.3007302,21.207565 C37.8583891,20.9664272 38.3831519,20.5624918 38.4643287,20.2256678 C38.4749526,20.2031396 38.4909386,20.183672 38.5108336,20.1690347 C38.8214861,19.8617085 38.7740606,19.6066252 38.3826962,19.4411543 C38.0308329,19.2924219 37.6979144,18.6464065 37.2862711,19.3682945 C37.0549258,19.774052 36.8257836,20.1812107 36.5878666,20.58297 C36.4594192,20.7998468 36.22992,20.9762933 36.0922844,20.6777953 C35.946471,20.278889 35.5499803,20.0347897 35.1352611,20.0886044 C35.0120599,20.096532 34.8910262,20.0528667 34.8002176,19.9677307 C34.709409,19.8825947 34.6567109,19.763381 34.6543397,19.6377251 C34.6424061,19.4608896 34.5344833,19.3056391 34.3746434,19.2353727 C33.5831822,18.7510836 33.7206863,19.6656638 33.4151775,19.9049844 C33.2146288,20.0620908 33.2590386,20.1943192 33.5282548,20.3144625 C35.5847252,21.295723 37.8228711,21.819883 40.0937842,21.8520692 L40.0937795,21.8520692 Z M6.24363594,22.3712746 C7.34885941,22.1790797 8.28779744,21.8238722 9.24894977,21.672189 C10.1585475,21.5286598 9.70942785,20.7740984 10.009187,20.370297 C10.2328237,20.0690348 9.66016556,20.039384 9.4526505,19.881345 C8.77141052,19.3625126 8.70387511,20.0975427 8.40952747,20.4087809 C8.01822891,20.8225106 8.20320555,21.0355328 8.61928792,21.2097171 C8.77790711,21.2760968 8.9833412,21.3634137 8.89792725,21.5659242 C8.84853365,21.638198 8.77139421,21.6858039 8.6856074,21.6969554 C8.59982059,21.7081068 8.51340659,21.6817613 8.44776011,21.6244416 C8.0693232,21.3717638 7.78206402,21.3017208 7.49848296,21.7766747 C7.37700191,21.9801656 7.17060014,21.8596158 7.19415321,21.6227964 C7.22112134,21.3513621 7.32343205,21.1107742 6.91841221,21.0330364 C6.64260075,20.9801048 6.26875326,20.6618556 6.14182315,20.7535628 C5.82095585,21.0409304 5.54223141,21.3736657 5.31416329,21.7416054 C5.31932004,21.8071583 5.35313455,21.8668835 5.40626642,21.9042833 C5.72951755,22.0400172 5.87344777,22.611719 6.24363594,22.3712746 Z M15.3676566,18.0892337 C15.3069279,18.330295 15.1530249,18.5723416 14.9726471,18.4199936 C14.2535127,17.8126009 14.1992523,18.5098405 14.0052377,18.8997204 C13.5434538,19.8276244 13.4747816,19.851895 12.6293512,19.2755257 C12.5190967,19.1775511 12.392371,19.1006503 12.2552736,19.0485246 C12.0416001,19.0030583 11.8265926,18.6928627 11.604257,18.9720923 C11.3123217,19.2973103 11.0916173,19.6819864 10.956773,20.1006226 C11.3164858,20.1526024 11.2230909,20.8484981 11.70436,20.684352 C13.0974631,20.1397632 14.4101153,19.4021243 15.6051979,18.4922939 C15.6658797,18.4502614 15.8888635,18.4253403 15.7224418,18.25788 C15.3490359,17.8821895 15.6042443,17.5425152 15.7721269,17.1994836 C15.8467601,17.0469826 16.1128056,16.9220522 15.7709854,16.7519855 C15.5426465,16.6383845 15.3294569,16.4730236 15.1629601,16.7945248 C14.9769688,17.1536826 14.4438726,17.5478189 15.2128048,17.8758241 C15.2806854,17.9331018 15.3338423,18.0063491 15.3676801,18.0892337 L15.3676566,18.0892337 Z M20.0281352,17.3320372 C21.3947207,17.4294403 22.6924697,16.8798858 24.0212266,17.3205021 C23.7934326,16.8711914 23.3610265,16.6980114 23.0986451,16.406797 C22.4641683,15.7026373 22.0988467,15.7683044 21.6853527,16.5684706 C21.607154,16.7197712 21.5089771,17.1360213 21.1078139,16.8398524 C20.3688609,16.2942099 20.3561167,16.3121152 20.0281352,17.3320372 L20.0281352,17.3320372 Z M41.3821335,18.9619728 C41.2377195,18.5229921 40.7905023,18.4099506 40.4081712,18.2242168 C40.0327441,18.5787922 39.7319313,19.007273 39.5239586,19.4836985 C39.7871031,19.8589984 40.1552098,20.1448748 40.5802862,20.304056 C40.7057273,20.3751798 41.4065463,19.2436319 41.3821523,18.9619728 L41.3821335,18.9619728 Z M35.0875772,17.1700097 C34.9193987,17.4710394 34.7272134,17.7574941 34.5129602,18.0264839 C34.1407709,18.4265838 34.3153333,18.679515 34.6850329,18.8797108 C34.8671745,19.0201712 35.1025849,19.0676957 35.3235902,19.0086224 C35.5445955,18.9495491 35.7267137,18.7904219 35.8175909,18.5769853 C36.1677115,18.0374356 36.0538732,17.7520223 35.5738866,17.47351 C35.4284673,17.3891008 35.2881165,17.2955715 35.087596,17.1700289 L35.0875772,17.1700097 Z M6.34328319,1.66443129 C8.08105276,2.25543955 7.55079859,2.44922215 8.54702687,1.38444125 C7.26077261,0.785637686 6.87074707,0.824690716 6.34328319,1.66443129 Z M36.3502972,20.0336308 C36.6258174,19.6865677 36.8707008,19.3572042 37.1384138,19.0483046 C37.2182125,18.9887095 37.2602061,18.8899077 37.2482476,18.7898901 C37.236289,18.6898725 37.1722402,18.6042122 37.080729,18.5658471 C36.8957476,18.4392571 36.7503753,18.1581767 36.4677619,18.3273443 C36.1977094,18.5156238 36.0269298,18.8191813 36.004046,19.1515903 C35.9811622,19.4839992 36.1086813,19.8088416 36.3502972,20.0336308 Z M32.913902,2.86890114 C31.514702,3.18379788 30.655151,3.84320394 30.5837355,4.65769825 C31.3426809,4.02914342 32.4418494,3.96933002 32.913902,2.86890114 L32.913902,2.86890114 Z M30.4476313,3.6347346 C29.4785684,3.63958395 29.5335052,4.56873616 29.1042888,5.03292967 C28.9309345,5.17143515 28.838374,5.38997185 28.8584377,5.61338797 C29.9047503,5.3714897 30.0814406,4.45378175 30.4476313,3.6347346 L30.4476313,3.6347346 Z M19.2595506,17.2718078 C19.6107046,17.0263323 19.6977768,16.560111 19.9752934,16.2415271 C19.9313725,16.1605805 19.8688934,16.0916346 19.7931728,16.0405565 C19.5271885,15.9027901 19.4056604,16.0976105 19.2942461,16.2940617 C19.0954819,16.5540938 18.9983687,16.879864 19.0216477,17.2085032 C19.0963358,17.2446397 19.1770464,17.2661163 19.2595506,17.2718078 L19.2595506,17.2718078 Z M24.3939889,17.3126064 C24.8193911,17.1772933 25.2917725,17.2078719 25.5781392,16.7840179 C24.9284896,16.1064579 24.8094137,16.1603937 24.3939889,17.3126064 L24.3939889,17.3126064 Z M21.2317141,16.2180646 C21.4547131,16.1198531 21.6060764,15.904139 21.6250326,15.6575298 C21.6248079,15.5594028 21.5856676,15.465527 21.5164904,15.397198 C21.4473132,15.3288689 21.3539629,15.2918785 21.2576159,15.2946178 C21.0194825,15.357992 20.8370327,15.5530224 20.7864605,15.7982613 C20.7328672,16.0650137 21.0372627,16.1088874 21.2317141,16.2180646 Z"/>
        <path d="M6 13C8.17482777 11.8392768 10.6173386 11.5197866 13 11 10.698163 11.7544666 8.23834815 11.9926967 6 13zM8 16C9.67965871 14.8123915 11.7873651 14.1098227 14 14 11.865126 14.3523753 9.82984844 15.0308012 8 16L8 16zM15 8C13.6383066 7.73661693 12.401309 7.1992147 11 7 12.3681411 7.25528374 13.8179513 7.32921565 15 8zM15 7C15.2116003 6.66644541 15.3845799 6.39958096 15.5505955 6.12932314 15.5719407 6.07841484 15.6156954 6.03750643 15.6717014 6.01609537 15.7277074 5.99468431 15.791093 5.994633 15.8471425 6.01595336 15.9149237 6.03831236 15.9673226 6.08734983 15.9891098 6.14881327 16.010897 6.21027671 15.9996284 6.27727116 15.9585791 6.33032502 15.7642674 6.66788774 15.4139692 6.91261032 15 7L15 7zM37 5.03277093C35.1495129 5.08751048 33.7706669 5.87744327 32.2788675 6.38431088 30.8556727 6.86783393 29.4747943 7.43881265 28 8 29.0941384 7.03889295 36.0455449 4.69634498 37 5.03277093zM36 13C33.6796686 12.3489159 31.3299181 12.5884637 29 12.221442 31.3399507 11.7590298 33.703278 12.0218852 36 13L36 13zM33 8.06700837C31.6547211 8.1715802 30.3166499 8.48368253 29 9 30.2710548 7.84921229 31.6396005 7.95135223 33 8.06700837zM17 7.92965584C17.5602954 7.53213248 17.6609055 6.88408052 18.311152 6.53116611 18.6090423 6.36947909 18.8112947 5.98403264 19.1892215 6.52090244 19.3181464 6.70405194 19.7977601 6.59361484 20.139378 6.43106111 20.6260034 6.19953171 21.0943528 5.76600567 21.8021964 6.15748868 21.9672721 6.18601915 22.094639 6.28670893 22.1266696 6.41400061 22.1749575 6.58450299 22.7049036 6.64544258 22.987391 6.39021931 23.3757833 6.03933102 23.6657339 5.94322505 23.7640614 6.53120032 23.7788639 6.619772 24.0265359 6.57618941 23.9976605 6.78018937 22.8835108 6.69452573 22.6803602 7.64137215 21.7425747 8 21.9123589 7.53395333 22.3692107 7.28312823 22.4152854 6.89027294 21.4814697 6.75751806 20.5441308 6.68466501 19.931543 7.40918891 19.497478 7.31227325 20.1153209 6.95832487 19.6915178 6.96220606 19.1321042 6.92570416 18.5749195 7.04958583 18.1279399 7.30984418 17.7857861 7.53853777 17.6324865 7.98554723 17.0093936 7.92202651 17.0060588 7.92441786 17.0029215 7.92696589 17 7.92965584L17 7.92965584z"/>
      </g>
    </g>
  </g>
</svg>
